<?xml version="1.0" encoding="utf-8"?>
<!-- Generator: Adobe Illustrator 23.0.2, SVG Export Plug-In . SVG Version: 6.00 Build 0)  -->
<svg version="1.1" id="Layer_1" xmlns="http://www.w3.org/2000/svg" xmlns:xlink="http://www.w3.org/1999/xlink" x="0px" y="0px"
	 viewBox="0 0 50 46" width="16" height="11" fill="#ffffff" xml:space="preserve" preserveAspectRatio="none">
<g>
	<path class="st0" d="M48.6,22.4c-0.8,0-1.4,0.6-1.4,1.4v13c0,3.5-2.9,6.4-6.4,6.4H9.3c-3.5,0-6.4-2.9-6.4-6.4V23.6
		c0-0.8-0.6-1.4-1.4-1.4S0,22.8,0,23.6v13.2c0,5.1,4.2,9.3,9.3,9.3h31.4c5.1,0,9.3-4.2,9.3-9.3v-13C50,23.1,49.4,22.4,48.6,22.4
		L48.6,22.4z"/>
	<path class="st0" d="M33.1,23.7l-6.7,6.7V1.3c0-0.8-0.6-1.4-1.4-1.4s-1.4,0.6-1.4,1.4v29.1l-6.7-6.7c-0.3-0.3-0.6-0.4-1-0.4
		s-0.7,0.1-1,0.4c-0.6,0.6-0.6,1.5,0,2l9.1,9.1c0.3,0.3,0.6,0.4,1,0.4s0.7-0.1,1-0.4l9.1-9.1c0.6-0.6,0.6-1.5,0-2
		C34.6,23.2,33.6,23.2,33.1,23.7L33.1,23.7z"/>
</g>
</svg>
