<?xml version="1.0" encoding="utf-8"?>
<!-- Generator: Adobe Illustrator 23.0.2, SVG Export Plug-In . SVG Version: 6.00 Build 0)  -->
<svg version="1.1" id="Layer_1" xmlns="http://www.w3.org/2000/svg" xmlns:xlink="http://www.w3.org/1999/xlink" x="0px" y="0px"
	 viewBox="0 0 20 24" width="20" height="24" fill="#ffffff" xml:space="preserve" preserveAspectRatio="none">
<g>
	<path class="st0" d="M19.9,7.7L19.9,7.7L19.9,7.7c0-0.1,0-0.2-0.1-0.2l0,0l-7.2-7.2l-0.1-0.1l0,0h-0.1l0,0H7.6
		C6,0.1,4.8,1.4,4.8,2.9v0.7h-2C1.3,3.6,0,4.9,0,6.4v14.3c0,1.6,1.3,2.8,2.8,2.8h9.5c1.5,0,2.8-1.3,2.8-2.8V20h2
		c1.6,0,2.8-1.3,2.8-2.8V7.7L19.9,7.7L19.9,7.7z M12.7,1.6l5.7,5.8h-3.8c-1.1,0-2-0.9-2-2V1.6H12.7z M14.3,20.8c0,1.1-0.9,2-2,2H2.8
		c-1.1,0-2-0.9-2-2V6.4c0-1.1,0.9-2,2-2h4.3v4.4c0,1.5,1.3,2.8,2.8,2.8h4.4C14.3,11.6,14.3,20.8,14.3,20.8z M13.7,10.8H9.9
		c-1.1,0-2-0.9-2-2V5.1L13.7,10.8z M17.1,19.2h-2v-8l0,0v-0.1l0,0c0,0,0-0.1-0.1-0.1l0,0L7.9,3.8L7.8,3.7l0,0H7.7l0,0H5.6V2.9
		c0-1.1,0.9-2,2-2h4.3v4.4c0,1.5,1.3,2.8,2.8,2.8h4.4v9.1C19.1,18.3,18.2,19.2,17.1,19.2L17.1,19.2z"/>
</g>
</svg>
