<?xml version="1.0" encoding="utf-8"?>
<!-- Generator: Adobe Illustrator 23.0.2, SVG Export Plug-In . SVG Version: 6.00 Build 0)  -->
<svg version="1.1" id="Layer_1" xmlns="http://www.w3.org/2000/svg" xmlns:xlink="http://www.w3.org/1999/xlink" x="0px" y="0px"
	 viewBox="0 0 16 12" width="16" height="12" xml:space="preserve" fill="#666666" preserveAspectRatio="none">
<g>
	<path d="M13,9.1c-0.1,0-0.1,0-0.2-0.1l-3-2.8C9.7,6.1,9.7,6,9.8,5.9s0.3-0.1,0.4,0l3,2.8c0.1,0.1,0.1,0.3,0,0.4
		C13.1,9.1,13,9.1,13,9.1L13,9.1z"/>
	<path d="M3,9.1c0,0-0.1,0-0.1-0.1c-0.1-0.1-0.1-0.3,0-0.4l3-2.8c0.1-0.1,0.3-0.1,0.4,0s0.1,0.3,0,0.4L3.2,9C3.2,9.1,3.1,9.1,3,9.1
		L3,9.1z"/>
	<path d="M14.7,11.7H1.3c-0.7,0-1.3-0.6-1.3-1.3V1.6c0-0.7,0.6-1.3,1.3-1.3h13.4c0.7,0,1.3,0.6,1.3,1.3v8.8
		C16,11.1,15.4,11.7,14.7,11.7L14.7,11.7z M1.3,0.8c-0.4,0-0.8,0.3-0.8,0.8v8.8c0,0.4,0.3,0.8,0.8,0.8h13.4c0.4,0,0.8-0.3,0.8-0.8
		V1.6c0-0.4-0.3-0.8-0.8-0.8H1.3z"/>
	<path d="M8,7.3C7.7,7.3,7.3,7.2,7.1,7L0.4,1.2c-0.1-0.1-0.1-0.3,0-0.4s0.3-0.1,0.4,0l6.6,5.8c0.3,0.3,0.9,0.3,1.2,0l6.6-5.8
		c0.1-0.1,0.3-0.1,0.4,0c0.1,0.1,0.1,0.3,0,0.4L8.9,7C8.7,7.2,8.3,7.3,8,7.3L8,7.3z"/>
</g>
</svg>
