


<svg data-name="Layer 1" xmlns="http://www.w3.org/2000/svg" width="22" height="24" fill="#ffffff" viewBox="0 0 48 48"><path d="M41.09 46.5H6.91a1 1 0 0 1-1-1v-43a1 1 0 0 1 1-1h26.6a1 1 0 0 1 0 2H7.91v41h32.18V10.08a1 1 0 1 1 2 0V45.5a1 1 0 0 1-1 1z"/><path d="M41.09 11.08a1 1 0 0 1-.71-.29L32.8 3.21a1 1 0 0 1 1.42-1.42l7.58 7.58a1 1 0 0 1 0 1.42 1 1 0 0 1-.71.29z"/><path d="M41.09 11.08h-7.58a1 1 0 0 1-1-1V2.5a1 1 0 0 1 1.71-.71l7.58 7.58a1 1 0 0 1-.71 1.71zm-6.58-2h4.17l-4.17-4.17zM16.44 14.88c-2.64 0-4.71-1.55-4.71-3.53s2.07-3.54 4.71-3.54c2.4 0 4.41 1.35 4.67 3.13a1 1 0 0 1-.84 1.14 1 1 0 0 1-1.13-.84c-.11-.69-1.21-1.43-2.7-1.43s-2.71.82-2.71 1.54 1.11 1.53 2.71 1.53a1 1 0 0 1 0 2z"/><path d="M16.44 20C14 20 12 18.62 11.76 16.83a1 1 0 0 1 2-.29c.1.69 1.21 1.43 2.7 1.43s2.7-.82 2.7-1.55-1.11-1.54-2.7-1.54a1 1 0 0 1 0-2c2.64 0 4.7 1.56 4.7 3.54S19.08 20 16.44 20z"/><path d="M16.44 21.94a1 1 0 0 1-1-1V6.84a1 1 0 0 1 2 0v14.1a1 1 0 0 1-1 1zM30.75 8.59H23.1a1 1 0 0 1 0-2h7.65a1 1 0 0 1 0 2zM30.75 11.93H23.1a1 1 0 0 1 0-2h7.65a1 1 0 0 1 0 2zM38.27 15.27H23.1a1 1 0 0 1 0-2h15.17a1 1 0 0 1 0 2zM38.27 18.6H23.1a1 1 0 0 1 0-2h15.17a1 1 0 0 1 0 2zM38.27 21.94H23.1a1 1 0 0 1 0-2h15.17a1 1 0 0 1 0 2zM38.27 25.27H10.36a1 1 0 1 1 0-2h27.91a1 1 0 0 1 0 2zM38.27 28.61H10.36a1 1 0 0 1 0-2h27.91a1 1 0 0 1 0 2zM38.27 32H10.36a1 1 0 0 1 0-2h27.91a1 1 0 0 1 0 2zM38.27 35.28H10.36a1 1 0 0 1 0-2h27.91a1 1 0 1 1 0 2zM38.27 38.62H10.36a1 1 0 0 1 0-2h27.91a1 1 0 0 1 0 2zM38.27 42H10.36a1 1 0 0 1 0-2h27.91a1 1 0 0 1 0 2z"/></svg>