<svg xmlns="http://www.w3.org/2000/svg" x="0px" y="0px" width="59" height="59" viewBox="0 0 48 48" >
<path d="M39,16H9c-1.654,0-3-1.346-3-3V9c0-0.52,0.398-0.953,0.917-0.997l12-1L29,7c0.027,0,0.056,0.001,0.083,0.003l12,1	C41.602,8.047,42,8.48,42,9v4C42,14.654,40.654,16,39,16z"></path><path d="M36,47H12c-1.654,0-3-1.346-3-3V14c0-0.552,0.447-1,1-1h28c0.553,0,1,0.448,1,1v30C39,45.654,37.654,47,36,47z"></path><path fill="#fff" d="M36,44H12c-1.105,0-2-0.895-2-2V12h28v30C38,43.105,37.105,44,36,44z"></path><path d="M36,45H12c-1.654,0-3-1.346-3-3V12c0-0.552,0.447-1,1-1h28c0.553,0,1,0.448,1,1v30C39,43.654,37.654,45,36,45z M11,13v29	c0,0.551,0.448,1,1,1h24c0.552,0,1-0.449,1-1V13H11z"></path><path fill="#fff" d="M29,6H19L7,9v2c0,1.105,0.895,2,2,2h30c1.105,0,2-0.895,2-2V9L29,6z"></path><path d="M39,14H9c-1.654,0-3-1.346-3-3V9c0-0.459,0.312-0.859,0.758-0.97l12-3C18.837,5.01,18.918,5,19,5h10	c0.082,0,0.163,0.01,0.242,0.03l12,3C41.688,8.141,42,8.541,42,9v2C42,12.654,40.654,14,39,14z M8,9.781V11c0,0.551,0.448,1,1,1h30	c0.552,0,1-0.449,1-1V9.781L28.877,7h-9.754L8,9.781z"></path><path d="M30,6h-2V4c0-0.551-0.448-1-1-1h-6c-0.552,0-1,0.449-1,1v2h-2V4c0-1.654,1.346-3,3-3h6c1.654,0,3,1.346,3,3V6z"></path><path d="M24,38c-0.553,0-1-0.448-1-1V19c0-0.552,0.447-1,1-1s1,0.448,1,1v18C25,37.552,24.553,38,24,38z"></path><path d="M31,38c-0.553,0-1-0.448-1-1V19c0-0.552,0.447-1,1-1s1,0.448,1,1v18C32,37.552,31.553,38,31,38z"></path><path d="M17,38c-0.553,0-1-0.448-1-1V19c0-0.552,0.447-1,1-1s1,0.448,1,1v18C18,37.552,17.553,38,17,38z"></path>
</svg>