<?xml version="1.0" encoding="utf-8"?>
<!-- Generator: Adobe Illustrator 23.0.2, SVG Export Plug-In . SVG Version: 6.00 Build 0)  -->
<svg version="1.1" id="Layer_1" xmlns="http://www.w3.org/2000/svg" xmlns:xlink="http://www.w3.org/1999/xlink" x="0px" y="0px"
	 viewBox="0 0 22 24" width="22" height="24" fill="#ffffff" xml:space="preserve" preserveAspectRatio="none">
<g>
	<path class="st0" d="M12.3,6.4H4.8c-0.7,0-0.7,1.1,0,1.1h7.5C13,7.5,13,6.4,12.3,6.4L12.3,6.4z"/>
	<path class="st0" d="M12.3,11.3H4.8c-0.7,0-0.7,1.1,0,1.1h7.5C13,12.4,13,11.3,12.3,11.3L12.3,11.3z"/>
	<g>
		<path class="st0" d="M12.3,16.2H4.8c-0.7,0-0.7,1.1,0,1.1h7.5C13,17.3,13,16.2,12.3,16.2L12.3,16.2z"/>
		<path class="st0" d="M21.9,18.5V6.6c0-1.6-0.8-2.4-2.4-2.4h-2V3.5c0-1.4-0.2-2.8-1.9-2.9c-1.2-0.1-2.5,0-3.7,0H5.2
			c-1.2,0-2.5-0.2-3.7,0C0,1,0,2.4,0,3.7v17.1c0,1.3,0.3,2.5,1.9,2.6c1.3,0.1,2.7,0,4,0h13.8c1,0,1.9-0.4,2.1-1.5
			C22.1,20.8,21.9,19.5,21.9,18.5L21.9,18.5z M20.7,21.8c-0.4,0.7-1.7,0.5-2.5,0.5H3c-0.9,0-1.8,0.1-1.9-1.1s0-2.5,0-3.7V5.7
			c0-1-0.1-2.1,0-3.1c0.2-1.2,1.8-0.8,2.6-0.8h10.9c0.3,0,0.7,0,1,0c0.7,0.1,0.8,0.7,0.8,1.2v16c0,0.7,1.1,0.7,1.1,0V5.3h1.7
			c0.7,0,1.5-0.1,1.6,0.9c0.2,1.2,0,2.5,0,3.6v10.9C20.8,21.2,20.8,21.5,20.7,21.8L20.7,21.8z"/>
	</g>
</g>
</svg>
