<?xml version="1.0" encoding="utf-8"?>
<!-- Generator: Adobe Illustrator 23.0.2, SVG Export Plug-In . SVG Version: 6.00 Build 0)  -->
<svg version="1.1" id="Layer_1" xmlns="http://www.w3.org/2000/svg" xmlns:xlink="http://www.w3.org/1999/xlink" x="0px" y="0px"
	 viewBox="0 0 19 16"  width="19" height="16" xml:space="preserve" preserveAspectRatio="none" fill="#00518F">
<g>
	<path d="M10.5,8v5h5V8H10.5z M14.5,12h-3V9h3V12z"/>
	<path d="M16.5,1H15V0h-2v1H6V0H4v1H2.5C1.1,1,0,2.1,0,3.5v10C0,14.9,1.1,16,2.5,16h14c1.4,0,2.5-1.1,2.5-2.5v-10
		C19,2.1,17.9,1,16.5,1z M18,13.5c0,0.8-0.7,1.5-1.5,1.5h-14C1.7,15,1,14.3,1,13.5v-10C1,2.7,1.7,2,2.5,2H4v2h2V2h7v2h2V2h1.5
		C17.3,2,18,2.7,18,3.5V13.5z"/>
</g>
</svg>
