<?xml version="1.0" encoding="utf-8"?>
<!-- Generator: Adobe Illustrator 23.0.2, SVG Export Plug-In . SVG Version: 6.00 Build 0)  -->
<svg version="1.1" id="Layer_1" xmlns="http://www.w3.org/2000/svg" xmlns:xlink="http://www.w3.org/1999/xlink" x="0px" y="0px"
	 viewBox="0 0 24 23" width="24" height="23" fill="#ffffff" xml:space="preserve" preserveAspectRatio="none">
<g>
	<path class="st0" d="M15.7,21.8v-6.1c0-0.2-0.2-0.5-0.5-0.5H8.7c-0.2,0-0.5,0.2-0.5,0.5v6.2H3.3V1.1h17.3v20.7L15.7,21.8L15.7,21.8
		L15.7,21.8z M12.5,21.8v-5.7h2.4v5.7H12.5L12.5,21.8z M9.2,21.8v-5.7h2.4v5.7H9.2L9.2,21.8z M21.1,0.2H2.9c-0.2,0-0.4,0.2-0.4,0.5
		v21.1H0.5C0.2,21.8,0,22,0,22.3c0,0.2,0.2,0.5,0.5,0.5h2.5h5.8h6.5H21h2.5c0.2,0,0.5-0.2,0.5-0.5c0-0.2-0.2-0.5-0.5-0.5h-2V0.7
		C21.5,0.4,21.3,0.2,21.1,0.2L21.1,0.2z"/>
	<path class="st0" d="M8.2,4.3H5.7c-0.2,0-0.5,0.2-0.5,0.5c0,0.2,0.2,0.5,0.5,0.5h2.5c0.2,0,0.5-0.2,0.5-0.5
		C8.6,4.5,8.4,4.3,8.2,4.3L8.2,4.3z"/>
	<path class="st0" d="M13.2,4.3h-2.5c-0.2,0-0.5,0.2-0.5,0.5c0,0.2,0.2,0.5,0.5,0.5h2.5c0.2,0,0.5-0.2,0.5-0.5
		C13.7,4.5,13.4,4.3,13.2,4.3L13.2,4.3z"/>
	<path class="st0" d="M18.3,4.3h-2.5c-0.2,0-0.5,0.2-0.5,0.5c0,0.2,0.2,0.5,0.5,0.5h2.5c0.2,0,0.5-0.2,0.5-0.5
		C18.7,4.5,18.5,4.3,18.3,4.3L18.3,4.3z"/>
	<path class="st0" d="M8.2,7.5H5.7c-0.2,0-0.5,0.2-0.5,0.5c0,0.2,0.2,0.5,0.5,0.5h2.5c0.2,0,0.5-0.2,0.5-0.5
		C8.6,7.6,8.4,7.5,8.2,7.5L8.2,7.5z"/>
	<path class="st0" d="M13.2,7.5h-2.5c-0.2,0-0.5,0.2-0.5,0.5c0,0.2,0.2,0.5,0.5,0.5h2.5c0.2,0,0.5-0.2,0.5-0.5
		C13.7,7.6,13.4,7.5,13.2,7.5L13.2,7.5z"/>
	<path class="st0" d="M18.3,7.5h-2.5c-0.2,0-0.5,0.2-0.5,0.5c0,0.2,0.2,0.5,0.5,0.5h2.5c0.2,0,0.5-0.2,0.5-0.5
		C18.7,7.6,18.5,7.5,18.3,7.5L18.3,7.5z"/>
	<path class="st0" d="M8.2,10.6H5.7c-0.2,0-0.5,0.2-0.5,0.5c0,0.2,0.2,0.4,0.5,0.4h2.5c0.2,0,0.5-0.2,0.5-0.4
		C8.6,10.8,8.4,10.6,8.2,10.6L8.2,10.6z"/>
	<path class="st0" d="M13.2,10.6h-2.5c-0.2,0-0.5,0.2-0.5,0.5c0,0.2,0.2,0.4,0.5,0.4h2.5c0.2,0,0.5-0.2,0.5-0.4
		C13.7,10.8,13.4,10.6,13.2,10.6L13.2,10.6z"/>
	<path class="st0" d="M18.3,10.6h-2.5c-0.2,0-0.5,0.2-0.5,0.5c0,0.2,0.2,0.4,0.5,0.4h2.5c0.2,0,0.5-0.2,0.5-0.4
		C18.7,10.8,18.5,10.6,18.3,10.6L18.3,10.6z"/>
</g>
</svg>
