<?xml version="1.0" encoding="utf-8"?>
<!-- Generator: Adobe Illustrator 23.0.2, SVG Export Plug-In . SVG Version: 6.00 Build 0)  -->
<svg version="1.1" id="Layer_1" xmlns="http://www.w3.org/2000/svg" xmlns:xlink="http://www.w3.org/1999/xlink" x="0px" y="0px"
	 viewBox="0 0 24 24" width="24" height="24" fill="#ffffff" xml:space="preserve" preserveAspectRatio="none">
<path class="st0" d="M23.4,10.5L22,10.2c-0.8-0.2-1.5-0.7-1.8-1.5C20,8,20.1,7.1,20.6,6.5l0.9-1.2c0.1-0.2,0.1-0.4,0-0.6l-1.8-1.9
	c-0.1-0.1-0.4-0.2-0.6-0.1l-1.2,0.8C17.2,4,16.4,4,15.6,3.7c-0.7-0.3-1.3-1-1.4-1.8L14,0.6c0-0.2-0.2-0.4-0.4-0.4H11
	c-0.2,0-0.4,0.1-0.4,0.4l-0.3,1.8C10,3.1,9.5,3.8,8.7,4.1C8,4.4,7.1,4.3,6.5,3.9L5,2.8C4.8,2.7,4.6,2.7,4.4,2.9L2.6,4.7
	c-0.2,0.2-0.2,0.4,0,0.6l0.9,1.2C3.9,7.1,4,8,3.7,8.8s-1,1.3-1.8,1.5l-1.4,0.3c-0.2,0-0.4,0.2-0.4,0.4v2.6c0,0.2,0.2,0.4,0.4,0.4
	L2,14.2c0.8,0.1,1.5,0.6,1.8,1.4c0.3,0.8,0.2,1.6-0.2,2.3L2.8,19c-0.1,0.2-0.1,0.4,0.1,0.6l1.8,1.9c0.2,0.2,0.4,0.2,0.6,0l1.2-0.9
	C7.1,20.1,8,20,8.8,20.3s1.3,1,1.5,1.8l0.3,1.4c0,0.2,0.2,0.4,0.4,0.4h2.6c0.2,0,0.4-0.2,0.4-0.4l0.2-1c0.1-0.8,0.7-1.5,1.4-1.8
	c0.8-0.3,1.6-0.2,2.3,0.3l0.8,0.6c0.2,0.1,0.4,0.1,0.6,0l1.8-1.8c0.1-0.1,0.2-0.4,0.1-0.6L20.4,18c-0.5-0.7-0.5-1.5-0.2-2.3
	s1-1.3,1.8-1.4l1.4-0.2c0.2,0,0.4-0.2,0.4-0.4v-2.6C23.8,10.7,23.6,10.5,23.4,10.5L23.4,10.5z M22.9,13.2l-1.1,0.2
	c-1.1,0.2-2,0.9-2.5,1.9c-0.4,1-0.3,2.2,0.3,3.1l0.6,0.9l-1.3,1.3l-0.5-0.4c-0.9-0.7-2.1-0.8-3.2-0.4s-1.8,1.4-2,2.5l-0.1,0.6h-1.9
	l-0.2-1c-0.2-1.1-1-2-2-2.4s-2.2-0.3-3.1,0.4L5,20.5l-1.3-1.3l0.6-0.9c0.6-0.9,0.7-2.1,0.3-3.1c-0.4-1-1.4-1.7-2.5-1.9L1,13.1v-1.9
	L2,11c1.1-0.2,2-1,2.4-2c0.5-1,0.4-2.1-0.3-3L3.5,5.1l1.3-1.3L6,4.6c0.9,0.6,2,0.7,3.1,0.3c1-0.4,1.7-1.3,1.9-2.4l0.3-1.4h1.9
	l0.2,1.1c0.2,1.1,0.9,2,1.9,2.5c1,0.4,2.2,0.3,3.1-0.3l0.9-0.6l1.3,1.3L19.9,6c-0.7,0.9-0.8,2.1-0.4,3.1s1.3,1.8,2.4,2l1,0.2V13.2z"
	/>
<path class="st0" d="M12.2,7.6c-2.5,0-4.6,2.1-4.6,4.6s2.1,4.6,4.6,4.6s4.6-2.1,4.6-4.6S14.7,7.6,12.2,7.6L12.2,7.6z M12.2,15.9
	c-2,0-3.7-1.7-3.7-3.7s1.7-3.7,3.7-3.7s3.7,1.7,3.7,3.7S14.3,15.9,12.2,15.9L12.2,15.9z"/>
<path class="st0" d="M12.2,9.8c-1.3,0-2.4,1.1-2.4,2.4s1.1,2.4,2.4,2.4s2.4-1.1,2.4-2.4S13.5,9.8,12.2,9.8L12.2,9.8z M12.2,13.7
	c-0.8,0-1.5-0.7-1.5-1.5s0.7-1.5,1.5-1.5s1.5,0.7,1.5,1.5C13.7,13.1,13.1,13.7,12.2,13.7L12.2,13.7z"/>
</svg>
