<?xml version="1.0" encoding="utf-8"?>
<!-- Generator: Adobe Illustrator 23.0.2, SVG Export Plug-In . SVG Version: 6.00 Build 0)  -->
<svg version="1.1" id="Layer_1" xmlns="http://www.w3.org/2000/svg" xmlns:xlink="http://www.w3.org/1999/xlink" x="0px" y="0px"
	 viewBox="0 0 12 12" width="16" height="16" fill="#ffffff" xml:space="preserve" preserveAspectRatio="none">
<g>
	<g>
		<path class="st0" d="M11.1,7.5c-0.2,0-0.3,0.1-0.3,0.3v2.7c0,0.5-0.4,0.9-0.9,0.9H1.5c-0.5,0-0.9-0.4-0.9-0.9V2.7
			c0-0.5,0.4-0.9,0.9-0.9h2.7c0.2,0,0.3-0.1,0.3-0.3c0-0.2-0.1-0.3-0.3-0.3H1.5C0.7,1.2,0,1.9,0,2.7v7.8C0,11.3,0.7,12,1.5,12h8.4
			c0.8,0,1.5-0.7,1.5-1.5V7.8C11.4,7.7,11.2,7.5,11.1,7.5L11.1,7.5z M11.1,7.5"/>
		<path class="st0" d="M11.3,0.4c-0.5-0.5-1.4-0.5-1.9,0L4,5.8c0,0-0.1,0.1-0.1,0.1L3.2,8.4c0,0.1,0,0.2,0.1,0.3
			c0.1,0.1,0.2,0.1,0.3,0.1l2.5-0.7c0,0,0.1,0,0.1-0.1l5.3-5.3c0.5-0.5,0.5-1.4,0-1.9L11.3,0.4z M4.7,6L9,1.6L10.4,3L6.1,7.4L4.7,6z
			 M4.4,6.5l1.1,1.1L4,8.1L4.4,6.5z M11.2,2.3l-0.3,0.3L9.5,1.2l0.3-0.3c0.3-0.3,0.8-0.3,1.1,0l0.4,0.4C11.5,1.5,11.5,2,11.2,2.3
			L11.2,2.3z M11.2,2.3"/>
	</g>
</g>
</svg>
