<?xml version="1.0" encoding="utf-8"?>
<!-- Generator: Adobe Illustrator 23.0.2, SVG Export Plug-In . SVG Version: 6.00 Build 0)  -->
<svg version="1.1" id="Layer_1" xmlns="http://www.w3.org/2000/svg" xmlns:xlink="http://www.w3.org/1999/xlink" x="0px" y="0px"
	 viewBox="0 0 12 16" width="12" height="16" xml:space="preserve" fill="#666666" preserveAspectRatio="none">
<g>
	<path d="M6,12.1c0.3,0,0.5-0.2,0.5-0.5v-2c0-0.3-0.2-0.5-0.5-0.5S5.5,9.3,5.5,9.6v2C5.5,11.9,5.7,12.1,6,12.1L6,12.1z"/>
	<path d="M11.5,5.1H9.2V2.7c0-1.6-1.5-2.9-3.2-2.9c-1.8,0-3.2,1.3-3.2,2.9V5H0.5C0.2,5.1,0,5.3,0,5.5v6.2c0,2.5,2,4.5,4.5,4.5h3
		c2.5,0,4.5-2,4.5-4.5V5.5C12,5.3,11.8,5.1,11.5,5.1L11.5,5.1z M3.7,2.7c0-1.1,1-2,2.3-2s2.3,0.9,2.3,2V5H3.7V2.7z M11,11.7
		c0,2-1.6,3.5-3.5,3.5h-3c-2,0-3.5-1.6-3.5-3.5V6h10V11.7z"/>
</g>
</svg>
