<?xml version="1.0" encoding="utf-8"?>
<!-- Generator: Adobe Illustrator 23.0.2, SVG Export Plug-In . SVG Version: 6.00 Build 0)  -->
<svg version="1.1" id="Layer_1" xmlns="http://www.w3.org/2000/svg" xmlns:xlink="http://www.w3.org/1999/xlink" x="0px" y="0px"
	 viewBox="0 0 50 46" width="50" height="46" fill="#ffffff" xml:space="preserve" preserveAspectRatio="none">
<g>
	<path class="st0" d="M48.6,22.4c-0.8,0-1.4,0.6-1.4,1.4v13c0,3.5-2.9,6.4-6.4,6.4H9.3c-3.5,0-6.4-2.9-6.4-6.4V23.6
		c0-0.8-0.6-1.4-1.4-1.4S0,22.8,0,23.6v13.2c0,5.1,4.2,9.3,9.3,9.3h31.4c5.1,0,9.3-4.2,9.3-9.3v-13C50,23.1,49.4,22.4,48.6,22.4
		L48.6,22.4z"/>
	<path class="st0" d="M16.9,11.4l6.7-6.7v29.1c0,0.8,0.6,1.4,1.4,1.4s1.4-0.6,1.4-1.4V4.7l6.7,6.7c0.3,0.3,0.6,0.4,1,0.4
		s0.7-0.1,1-0.4c0.6-0.6,0.6-1.5,0-2L26,0.3c-0.3-0.3-0.6-0.4-1-0.4S24.3,0,24,0.3l-9.1,9.1c-0.6,0.6-0.6,1.5,0,2
		C15.4,11.9,16.4,11.9,16.9,11.4L16.9,11.4z"/>
</g>
</svg>
